<?xml version="1.0" encoding="utf-8"?>
<!-- Generator: Adobe Illustrator 24.1.0, SVG Export Plug-In . SVG Version: 6.00 Build 0)  -->
<svg version="1.1" id="Capa_1" xmlns="http://www.w3.org/2000/svg" xmlns:xlink="http://www.w3.org/1999/xlink" x="0px" y="0px"
	 viewBox="0 0 183 191" style="enable-background:new 0 0 183 191;" xml:space="preserve">
<style type="text/css">
	.st0{clip-path:url(#SVGID_2_);}
	.st1{fill:#00ADF2;}
	.st2{opacity:0.43;}
	.st3{fill:none;stroke:#00ADF2;stroke-width:2;stroke-miterlimit:10;}
	.st4{clip-path:url(#SVGID_4_);}
	.st5{fill:#FF680D;}
	.st6{fill:none;stroke:#FF680D;stroke-width:2;stroke-miterlimit:10;}
	.st7{clip-path:url(#SVGID_6_);}
	.st8{fill:#B700D8;}
	.st9{fill:none;stroke:#B700D8;stroke-width:2;stroke-miterlimit:10;}
	.st10{clip-path:url(#SVGID_8_);}
	.st11{fill:#00DCB3;}
	.st12{fill:none;stroke:#00DCB3;stroke-width:2;stroke-miterlimit:10;}
	.st13{opacity:0.47;}
</style>
<g>
	<defs>
		<rect id="SVGID_1_" width="183" height="191"/>
	</defs>
	<clipPath id="SVGID_2_">
		<use xlink:href="#SVGID_1_"  style="overflow:visible;"/>
	</clipPath>
	<g class="st0">
		<g>
			<g>
				<g>
					<polygon class="st1" points="-7.5,128.7 42.9,128.7 -11,182.6 11.4,205 65.3,151.1 65.3,201.5 96.9,201.5 96.9,97.1 -7.5,97.1 
											"/>
				</g>
			</g>
		</g>
		<g class="st2">
			<g>
				<polygon class="st3" points="127.5,130.5 152.2,130.5 125.8,156.9 136.7,167.9 163.1,141.5 163.1,166.2 178.7,166.2 178.7,115 
					127.5,115 				"/>
			</g>
		</g>
		<g>
			<g>
				<g>
					<polygon class="st1" points="55.2,23.1 87.3,23.1 53,57.3 67.2,71.6 101.5,37.3 101.5,69.3 121.6,69.3 121.6,3 55.2,3 					"/>
				</g>
			</g>
		</g>
	</g>
</g>
<g>
	<defs>
		<rect id="SVGID_3_" x="302" y="-5" width="183" height="191"/>
	</defs>
	<clipPath id="SVGID_4_">
		<use xlink:href="#SVGID_3_"  style="overflow:visible;"/>
	</clipPath>
	<g class="st4">
		<g>
			<g>
				<g>
					<polygon class="st5" points="294.5,123.7 344.9,123.7 291,177.6 313.4,200 367.3,146.1 367.3,196.5 398.9,196.5 398.9,92.1 
						294.5,92.1 					"/>
				</g>
			</g>
		</g>
		<g class="st2">
			<g>
				<polygon class="st6" points="429.5,125.5 454.2,125.5 427.8,151.9 438.7,162.9 465.1,136.5 465.1,161.2 480.7,161.2 480.7,110 
					429.5,110 				"/>
			</g>
		</g>
		<g>
			<g>
				<g>
					<polygon class="st5" points="357.2,18.1 389.3,18.1 355,52.3 369.2,66.6 403.5,32.3 403.5,64.3 423.6,64.3 423.6,-2 357.2,-2 
											"/>
				</g>
			</g>
		</g>
	</g>
</g>
<g>
	<defs>
		<rect id="SVGID_5_" x="622" y="-16" width="183" height="191"/>
	</defs>
	<clipPath id="SVGID_6_">
		<use xlink:href="#SVGID_5_"  style="overflow:visible;"/>
	</clipPath>
	<g class="st7">
		<g>
			<g>
				<g>
					<polygon class="st8" points="614.5,112.7 664.9,112.7 611,166.6 633.4,189 687.3,135.1 687.3,185.5 718.9,185.5 718.9,81.1 
						614.5,81.1 					"/>
				</g>
			</g>
		</g>
		<g class="st2">
			<g>
				<polygon class="st9" points="749.5,114.5 774.2,114.5 747.8,140.9 758.7,151.9 785.2,125.5 785.2,150.2 800.7,150.2 800.7,99 
					749.5,99 				"/>
			</g>
		</g>
		<g>
			<g>
				<g>
					<polygon class="st8" points="677.2,7.1 709.3,7.1 675,41.3 689.2,55.6 723.5,21.3 723.5,53.3 743.6,53.3 743.6,-13 677.2,-13 
											"/>
				</g>
			</g>
		</g>
	</g>
</g>
<g>
	<g>
		<defs>
			<rect id="SVGID_7_" x="1020" y="-16" width="183" height="191"/>
		</defs>
		<clipPath id="SVGID_8_">
			<use xlink:href="#SVGID_7_"  style="overflow:visible;"/>
		</clipPath>
		<g class="st10">
			<g>
				<g>
					<polygon class="st11" points="1012.5,112.7 1062.9,112.7 1009,166.6 1031.4,189 1085.3,135.1 1085.3,185.5 1116.9,185.5 
						1116.9,81.1 1012.5,81.1 					"/>
				</g>
			</g>
			<g class="st2">
				<g>
					<polygon class="st12" points="1147.5,114.5 1172.2,114.5 1145.8,140.9 1156.7,151.9 1183.2,125.5 1183.2,150.2 1198.7,150.2 
						1198.7,99 1147.5,99 					"/>
				</g>
			</g>
			<g class="st13">
				<g>
					<polygon class="st11" points="1075.2,7.1 1107.3,7.1 1073,41.3 1087.2,55.6 1121.5,21.3 1121.5,53.3 1141.6,53.3 1141.6,-13 
						1075.2,-13 					"/>
				</g>
			</g>
		</g>
	</g>
</g>
</svg>
