<svg xmlns="http://www.w3.org/2000/svg" viewBox="0 0 143.27 145"><defs><style>.cls-1{fill:#f65a4c;}</style></defs><g id="Capa_2" data-name="Capa 2"><g id="Capa_1-2" data-name="Capa 1"><polygon class="cls-1" points="0 19.07 30.37 19.07 0.13 49.76 13.62 63.24 43.86 32.55 43.86 62.93 62.93 62.93 62.93 0 0 0 0 19.07"/><polygon class="cls-1" points="80.35 19.07 110.72 19.07 80.48 49.76 93.96 63.24 124.2 32.55 124.2 62.93 143.27 62.93 143.27 0 80.35 0 80.35 19.07"/><polygon class="cls-1" points="0 100.83 30.37 100.83 0.13 131.52 13.62 145 43.86 114.31 43.86 144.68 62.93 144.68 62.93 81.76 0 81.76 0 100.83"/></g></g></svg>